# Blender v2.71 (sub 0) OBJ File: 'skybox.blend'
# www.blender.org
mtllib skybox.mtl
o Cube
v -0.999999 1.000002 -1.000000
v -0.999999 1.000002 1.000000
v 1.000002 0.999999 1.000000
v 1.000001 0.999999 -1.000000
v -1.000002 -0.999999 -0.999999
v -1.000001 -0.999999 1.000001
v 0.999999 -1.000002 1.000000
v 0.999998 -1.000002 -1.000000
vt 0.499828 0.000754
vt 0.499942 0.333890
vt 0.249986 0.334161
vt 0.250215 1.000433
vt 0.250100 0.667297
vt 0.500057 0.667026
vt 0.000029 0.334432
vt 0.749899 0.333619
vt 0.750013 0.666755
vt 0.999970 0.666484
vt 0.249871 0.001025
vt 0.500171 1.000162
vt 0.000144 0.667568
vt 0.999856 0.333348
vn -0.000000 -1.000000 0.000000
vn 0.000000 1.000000 0.000000
vn 1.000000 -0.000000 0.000000
vn -0.000000 0.000000 -1.000000
vn -1.000000 0.000000 0.000000
vn 0.000000 0.000000 1.000000
usemtl Material
s off
f 4/1/1 3/2/1 2/3/1
f 5/4/2 6/5/2 7/6/2
f 1/7/3 2/3/3 6/5/3
f 2/3/4 3/2/4 7/6/4
f 4/8/5 8/9/5 7/6/5
f 5/10/6 8/9/6 4/8/6
f 1/11/1 4/1/1 2/3/1
f 8/12/2 5/4/2 7/6/2
f 5/13/3 1/7/3 6/5/3
f 6/5/4 2/3/4 7/6/4
f 3/2/5 4/8/5 7/6/5
f 1/14/6 5/10/6 4/8/6
