# Blender v2.71 (sub 0) OBJ File: 'skybox.blend'
# www.blender.org
mtllib skybox.mtl
o Cube
v -0.999999 1.000002 -1.000000
v -0.999999 1.000002 1.000000
v 1.000002 0.999999 1.000000
v 1.000001 0.999999 -1.000000
v -1.000002 -0.999999 -0.999999
v -1.000001 -0.999999 1.000001
v 0.999999 -1.000002 1.000000
v 0.999998 -1.000002 -1.000000
vt 0.499999 0.000001
vt 0.499999 0.333335
vt 0.250001 0.333335
vt 0.250001 0.999999
vt 0.250001 0.666666
vt 0.499999 0.666665
vt 0.000057 0.333472
vt 0.749899 0.333335
vt 0.750013 0.666666
vt 0.999999 0.666666
vt 0.250002 0.000002
vt 0.499999 0.999999
vt 0.000001 0.666665
vt 0.999998 0.333335
vn -0.000000 -1.000000 0.000000
vn 0.000000 1.000000 0.000000
vn 1.000000 -0.000000 0.000000
vn -0.000000 0.000000 -1.000000
vn -1.000000 0.000000 0.000000
vn 0.000000 0.000000 1.000000
usemtl Material
s off
f 4/1/1 3/2/1 2/3/1
f 5/4/2 6/5/2 7/6/2
f 1/7/3 2/3/3 6/5/3
f 2/3/4 3/2/4 7/6/4
f 4/8/5 8/9/5 7/6/5
f 5/10/6 8/9/6 4/8/6
f 1/11/1 4/1/1 2/3/1
f 8/12/2 5/4/2 7/6/2
f 5/13/3 1/7/3 6/5/3
f 6/5/4 2/3/4 7/6/4
f 3/2/5 4/8/5 7/6/5
f 1/14/6 5/10/6 4/8/6
