# Blender v2.71 (sub 0) OBJ File: ''
# www.blender.org
mtllib sphere.mtl
o Sphere
v -0.382683 0.923880 0.000000
v -0.707107 0.707107 0.000000
v -0.923880 0.382683 0.000000
v -1.000000 -0.000000 0.000000
v -0.923880 -0.382684 0.000000
v -0.707107 -0.707107 0.000000
v -0.382683 -0.923880 0.000000
v -0.353553 0.923880 -0.146447
v -0.653281 0.707107 -0.270598
v -0.853553 0.382683 -0.353553
v -0.923880 -0.000000 -0.382683
v -0.853553 -0.382684 -0.353553
v -0.653281 -0.707107 -0.270598
v -0.353553 -0.923880 -0.146447
v -0.270598 0.923880 -0.270598
v -0.500000 0.707107 -0.500000
v -0.653281 0.382683 -0.653281
v -0.707107 -0.000000 -0.707107
v -0.653281 -0.382684 -0.653281
v -0.500000 -0.707107 -0.500000
v -0.270598 -0.923880 -0.270598
v -0.000000 -1.000000 0.000000
v -0.146447 0.923880 -0.353553
v -0.270598 0.707107 -0.653281
v -0.353553 0.382683 -0.853553
v -0.382683 -0.000000 -0.923879
v -0.353553 -0.382684 -0.853553
v -0.270598 -0.707107 -0.653281
v -0.146447 -0.923880 -0.353553
v -0.000000 0.923880 -0.382683
v -0.000000 0.707107 -0.707107
v -0.000000 0.382683 -0.923879
v -0.000000 -0.000000 -1.000000
v -0.000000 -0.382684 -0.923879
v -0.000000 -0.707107 -0.707107
v -0.000000 -0.923880 -0.382683
v 0.146446 0.923880 -0.353553
v 0.270598 0.707107 -0.653281
v 0.353553 0.382683 -0.853553
v 0.382683 -0.000000 -0.923879
v 0.353553 -0.382684 -0.853553
v 0.270598 -0.707107 -0.653281
v 0.146446 -0.923880 -0.353553
v -0.000000 1.000000 0.000000
v 0.270598 0.923880 -0.270598
v 0.500000 0.707107 -0.500000
v 0.653281 0.382683 -0.653281
v 0.707107 -0.000000 -0.707106
v 0.653281 -0.382684 -0.653281
v 0.500000 -0.707107 -0.500000
v 0.270598 -0.923880 -0.270598
v 0.353553 0.923880 -0.146446
v 0.653281 0.707107 -0.270598
v 0.853553 0.382683 -0.353553
v 0.923879 -0.000000 -0.382683
v 0.853553 -0.382684 -0.353553
v 0.653281 -0.707107 -0.270598
v 0.353553 -0.923880 -0.146446
v 0.382683 0.923880 0.000000
v 0.707106 0.707107 0.000000
v 0.923879 0.382683 0.000000
v 1.000000 -0.000000 0.000000
v 0.923879 -0.382684 0.000000
v 0.707106 -0.707107 0.000000
v 0.382683 -0.923880 0.000000
v 0.353553 0.923880 0.146447
v 0.653281 0.707107 0.270598
v 0.853553 0.382683 0.353554
v 0.923879 -0.000000 0.382684
v 0.853553 -0.382684 0.353554
v 0.653281 -0.707107 0.270598
v 0.353553 -0.923880 0.146447
v 0.270598 0.923880 0.270598
v 0.499999 0.707107 0.500000
v 0.653281 0.382683 0.653282
v 0.707106 -0.000000 0.707107
v 0.653281 -0.382684 0.653282
v 0.499999 -0.707107 0.500000
v 0.270598 -0.923880 0.270598
v 0.146446 0.923880 0.353553
v 0.270597 0.707107 0.653281
v 0.353553 0.382683 0.853553
v 0.382683 -0.000000 0.923879
v 0.353553 -0.382684 0.853553
v 0.270597 -0.707107 0.653281
v 0.146446 -0.923880 0.353553
v -0.000000 0.923880 0.382683
v -0.000000 0.707107 0.707106
v -0.000001 0.382683 0.923879
v -0.000001 -0.000000 1.000000
v -0.000001 -0.382684 0.923879
v -0.000000 -0.707107 0.707106
v -0.000000 -0.923880 0.382683
v -0.146447 0.923880 0.353553
v -0.270598 0.707107 0.653281
v -0.353554 0.382683 0.853553
v -0.382684 -0.000000 0.923879
v -0.353554 -0.382684 0.853553
v -0.270598 -0.707107 0.653281
v -0.146447 -0.923880 0.353553
v -0.270598 0.923880 0.270598
v -0.500000 0.707107 0.499999
v -0.653282 0.382683 0.653281
v -0.707107 -0.000000 0.707106
v -0.653282 -0.382684 0.653281
v -0.500000 -0.707107 0.499999
v -0.270598 -0.923880 0.270598
v -0.353553 0.923880 0.146446
v -0.653281 0.707107 0.270598
v -0.853553 0.382683 0.353553
v -0.923880 -0.000000 0.382683
v -0.853553 -0.382684 0.353553
v -0.653281 -0.707107 0.270598
v -0.353553 -0.923880 0.146446
vt 1.000000 0.000000
vt 1.000000 1.000000
vt 0.000000 1.000000
vt 0.000000 0.000000
vn -0.552200 -0.826400 -0.109800
vn -0.820300 -0.548100 -0.163200
vn -0.962600 -0.191500 -0.191500
vn -0.962600 0.191500 -0.191500
vn -0.820300 0.548100 -0.163200
vn -0.552200 0.826400 -0.109800
vn -0.468100 -0.826400 -0.312800
vn -0.695400 -0.548100 -0.464700
vn -0.816100 -0.191500 -0.545300
vn -0.816100 0.191500 -0.545300
vn -0.695400 0.548100 -0.464700
vn -0.468100 0.826400 -0.312800
vn -0.312800 -0.826400 -0.468100
vn -0.464700 -0.548100 -0.695400
vn -0.545300 -0.191500 -0.816100
vn -0.545300 0.191500 -0.816100
vn -0.464700 0.548100 -0.695400
vn -0.312800 0.826400 -0.468100
vn -0.109800 -0.826400 -0.552200
vn -0.163200 -0.548100 -0.820300
vn -0.191500 -0.191500 -0.962600
vn -0.191500 0.191500 -0.962600
vn -0.163200 0.548100 -0.820300
vn -0.109800 0.826400 -0.552200
vn 0.109800 -0.826400 -0.552200
vn 0.163200 -0.548100 -0.820300
vn 0.191500 -0.191500 -0.962600
vn 0.191500 0.191500 -0.962600
vn 0.163200 0.548100 -0.820300
vn 0.109800 0.826400 -0.552200
vn 0.312800 -0.826400 -0.468100
vn 0.464700 -0.548100 -0.695400
vn 0.545300 -0.191500 -0.816100
vn 0.545300 0.191500 -0.816100
vn 0.464700 0.548100 -0.695400
vn 0.312800 0.826400 -0.468100
vn 0.468100 -0.826400 -0.312800
vn 0.695400 -0.548100 -0.464700
vn 0.816100 -0.191500 -0.545300
vn 0.816100 0.191500 -0.545300
vn 0.695400 0.548100 -0.464700
vn 0.468100 0.826400 -0.312800
vn 0.552200 -0.826400 -0.109800
vn 0.820300 -0.548100 -0.163200
vn 0.962600 -0.191500 -0.191500
vn 0.962600 0.191500 -0.191500
vn 0.820300 0.548100 -0.163200
vn 0.552200 0.826400 -0.109800
vn 0.552200 -0.826400 0.109800
vn 0.820300 -0.548100 0.163200
vn 0.962600 -0.191500 0.191500
vn 0.962600 0.191500 0.191500
vn 0.820300 0.548100 0.163200
vn 0.552200 0.826400 0.109800
vn 0.468100 -0.826400 0.312800
vn 0.695400 -0.548100 0.464700
vn 0.816100 -0.191500 0.545300
vn 0.816100 0.191500 0.545300
vn 0.695400 0.548100 0.464700
vn 0.468100 0.826400 0.312800
vn 0.312800 -0.826400 0.468100
vn 0.464700 -0.548100 0.695400
vn 0.545300 -0.191500 0.816100
vn 0.545300 0.191500 0.816100
vn 0.464700 0.548100 0.695400
vn 0.312800 0.826400 0.468100
vn 0.109800 -0.826400 0.552200
vn 0.163200 -0.548100 0.820300
vn 0.191500 -0.191500 0.962600
vn 0.191500 0.191500 0.962600
vn 0.163200 0.548100 0.820300
vn 0.109800 0.826400 0.552200
vn -0.109800 -0.826400 0.552200
vn -0.163200 -0.548100 0.820300
vn -0.191500 -0.191500 0.962600
vn -0.191500 0.191500 0.962600
vn -0.163200 0.548100 0.820300
vn -0.109800 0.826400 0.552200
vn -0.312800 -0.826400 0.468100
vn -0.464700 -0.548100 0.695400
vn -0.545300 -0.191500 0.816100
vn -0.545300 0.191500 0.816100
vn -0.464700 0.548100 0.695400
vn -0.312800 0.826400 0.468100
vn -0.468100 -0.826400 0.312800
vn -0.695400 -0.548100 0.464700
vn -0.816100 -0.191500 0.545300
vn -0.816100 0.191500 0.545300
vn -0.695400 0.548100 0.464700
vn -0.468100 0.826400 0.312800
vn -0.194900 -0.980000 -0.038800
vn -0.194900 0.980000 -0.038800
vn -0.165300 -0.980000 -0.110400
vn -0.165300 0.980000 -0.110400
vn -0.110400 -0.980000 -0.165300
vn -0.110400 0.980000 -0.165300
vn -0.038800 -0.980000 -0.194900
vn -0.038800 0.980000 -0.194900
vn 0.038800 -0.980000 -0.194900
vn 0.038800 0.980000 -0.194900
vn 0.110400 -0.980000 -0.165300
vn 0.110400 0.980000 -0.165300
vn 0.165300 -0.980000 -0.110400
vn 0.165300 0.980000 -0.110400
vn 0.194900 -0.980000 -0.038800
vn 0.194900 0.980000 -0.038800
vn 0.194900 -0.980000 0.038800
vn 0.194900 0.980000 0.038800
vn 0.165300 -0.980000 0.110400
vn 0.165300 0.980000 0.110400
vn 0.110400 -0.980000 0.165300
vn 0.110400 0.980000 0.165300
vn 0.038800 -0.980000 0.194900
vn 0.038800 0.980000 0.194900
vn -0.038800 -0.980000 0.194900
vn -0.038800 0.980000 0.194900
vn -0.110400 -0.980000 0.165300
vn -0.110400 0.980000 0.165300
vn -0.165300 -0.980000 0.110400
vn -0.165300 0.980000 0.110400
vn -0.194900 -0.980000 0.038800
vn -0.552200 -0.826400 0.109800
vn -0.820300 -0.548100 0.163200
vn -0.962600 -0.191500 0.191500
vn -0.962600 0.191500 0.191500
vn -0.820300 0.548100 0.163200
vn -0.552200 0.826400 0.109800
vn -0.194900 0.980000 0.038800
usemtl None
s off
f 6/1/1 13/2/1 14/3/1
f 5/1/2 12/2/2 13/3/2
f 4/1/3 11/2/3 12/3/3
f 3/1/4 10/2/4 11/3/4
f 2/1/5 9/2/5 10/3/5
f 1/1/6 8/2/6 9/3/6
f 13/1/7 20/2/7 21/3/7
f 13/4/8 12/1/8 19/2/8
f 12/4/9 11/1/9 18/2/9
f 11/4/10 10/1/10 17/2/10
f 9/1/11 16/2/11 17/3/11
f 8/1/12 15/2/12 16/3/12
f 20/1/13 28/2/13 29/3/13
f 20/4/14 19/1/14 27/2/14
f 19/4/15 18/1/15 26/2/15
f 18/4/16 17/1/16 25/2/16
f 16/1/17 24/2/17 25/3/17
f 16/4/18 15/1/18 23/2/18
f 28/1/19 35/2/19 36/3/19
f 27/1/20 34/2/20 35/3/20
f 26/1/21 33/2/21 34/3/21
f 25/1/22 32/2/22 33/3/22
f 24/1/23 31/2/23 32/3/23
f 23/1/24 30/2/24 31/3/24
f 35/1/25 42/2/25 43/3/25
f 34/1/26 41/2/26 42/3/26
f 33/1/27 40/2/27 41/3/27
f 33/4/28 32/1/28 39/2/28
f 32/4/29 31/1/29 38/2/29
f 30/1/30 37/2/30 38/3/30
f 42/1/31 50/2/31 51/3/31
f 41/1/32 49/2/32 50/3/32
f 40/1/33 48/2/33 49/3/33
f 40/4/34 39/1/34 47/2/34
f 38/1/35 46/2/35 47/3/35
f 37/1/36 45/2/36 46/3/36
f 50/1/37 57/2/37 58/3/37
f 49/1/38 56/2/38 57/3/38
f 48/1/39 55/2/39 56/3/39
f 47/1/40 54/2/40 55/3/40
f 46/1/41 53/2/41 54/3/41
f 45/1/42 52/2/42 53/3/42
f 57/1/43 64/2/43 65/3/43
f 56/1/44 63/2/44 64/3/44
f 55/1/45 62/2/45 63/3/45
f 54/1/46 61/2/46 62/3/46
f 53/1/47 60/2/47 61/3/47
f 53/4/48 52/1/48 59/2/48
f 64/1/49 71/2/49 72/3/49
f 63/1/50 70/2/50 71/3/50
f 62/1/51 69/2/51 70/3/51
f 62/4/52 61/1/52 68/2/52
f 60/1/53 67/2/53 68/3/53
f 59/1/54 66/2/54 67/3/54
f 71/1/55 78/2/55 79/3/55
f 70/1/56 77/2/56 78/3/56
f 69/1/57 76/2/57 77/3/57
f 68/1/58 75/2/58 76/3/58
f 68/4/59 67/1/59 74/2/59
f 66/1/60 73/2/60 74/3/60
f 78/1/61 85/2/61 86/3/61
f 77/1/62 84/2/62 85/3/62
f 76/1/63 83/2/63 84/3/63
f 75/1/64 82/2/64 83/3/64
f 75/4/65 74/1/65 81/2/65
f 73/1/66 80/2/66 81/3/66
f 85/1/67 92/2/67 93/3/67
f 85/4/68 84/1/68 91/2/68
f 84/4/69 83/1/69 90/2/69
f 82/1/70 89/2/70 90/3/70
f 81/1/71 88/2/71 89/3/71
f 80/1/72 87/2/72 88/3/72
f 93/4/73 92/1/73 99/2/73
f 91/1/74 98/2/74 99/3/74
f 91/4/75 90/1/75 97/2/75
f 89/1/76 96/2/76 97/3/76
f 88/1/77 95/2/77 96/3/77
f 87/1/78 94/2/78 95/3/78
f 99/1/79 106/2/79 107/3/79
f 99/4/80 98/1/80 105/2/80
f 98/4/81 97/1/81 104/2/81
f 96/1/82 103/2/82 104/3/82
f 96/4/83 95/1/83 102/2/83
f 94/1/84 101/2/84 102/3/84
f 106/1/85 113/2/85 114/3/85
f 105/1/86 112/2/86 113/3/86
f 105/4/87 104/1/87 111/2/87
f 103/1/88 110/2/88 111/3/88
f 103/4/89 102/1/89 109/2/89
f 101/1/90 108/2/90 109/3/90
f 22/4/91 7/1/91 14/2/91
f 1/4/92 44/1/92 8/2/92
f 22/4/93 14/1/93 21/2/93
f 8/4/94 44/1/94 15/2/94
f 22/4/95 21/1/95 29/2/95
f 15/4/96 44/1/96 23/2/96
f 22/4/97 29/1/97 36/2/97
f 23/4/98 44/1/98 30/2/98
f 22/4/99 36/1/99 43/2/99
f 30/4/100 44/1/100 37/2/100
f 22/4/101 43/1/101 51/2/101
f 37/4/102 44/1/102 45/2/102
f 22/4/103 51/1/103 58/2/103
f 45/4/104 44/1/104 52/2/104
f 22/4/105 58/1/105 65/2/105
f 52/4/106 44/1/106 59/2/106
f 22/4/107 65/1/107 72/2/107
f 59/4/108 44/1/108 66/2/108
f 22/4/109 72/1/109 79/2/109
f 66/4/110 44/1/110 73/2/110
f 22/4/111 79/1/111 86/2/111
f 73/4/112 44/1/112 80/2/112
f 22/4/113 86/1/113 93/2/113
f 80/4/114 44/1/114 87/2/114
f 22/4/115 93/1/115 100/2/115
f 87/4/116 44/1/116 94/2/116
f 22/4/117 100/1/117 107/2/117
f 94/4/118 44/1/118 101/2/118
f 22/4/119 107/1/119 114/2/119
f 101/4/120 44/1/120 108/2/120
f 22/4/121 114/1/121 7/2/121
f 114/4/122 113/1/122 6/2/122
f 113/4/123 112/1/123 5/2/123
f 111/1/124 4/2/124 5/3/124
f 110/1/125 3/2/125 4/3/125
f 109/1/126 2/2/126 3/3/126
f 108/1/127 1/2/127 2/3/127
f 108/4/128 44/1/128 1/2/128
f 7/4/1 6/1/1 14/3/1
f 6/4/2 5/1/2 13/3/2
f 5/4/3 4/1/3 12/3/3
f 4/4/4 3/1/4 11/3/4
f 3/4/5 2/1/5 10/3/5
f 2/4/6 1/1/6 9/3/6
f 14/4/7 13/1/7 21/3/7
f 20/3/8 13/4/8 19/2/8
f 19/3/9 12/4/9 18/2/9
f 18/3/10 11/4/10 17/2/10
f 10/4/11 9/1/11 17/3/11
f 9/4/12 8/1/12 16/3/12
f 21/4/13 20/1/13 29/3/13
f 28/3/14 20/4/14 27/2/14
f 27/3/15 19/4/15 26/2/15
f 26/3/16 18/4/16 25/2/16
f 17/4/17 16/1/17 25/3/17
f 24/3/18 16/4/18 23/2/18
f 29/4/19 28/1/19 36/3/19
f 28/4/20 27/1/20 35/3/20
f 27/4/21 26/1/21 34/3/21
f 26/4/22 25/1/22 33/3/22
f 25/4/23 24/1/23 32/3/23
f 24/4/24 23/1/24 31/3/24
f 36/4/25 35/1/25 43/3/25
f 35/4/26 34/1/26 42/3/26
f 34/4/27 33/1/27 41/3/27
f 40/3/28 33/4/28 39/2/28
f 39/3/29 32/4/29 38/2/29
f 31/4/30 30/1/30 38/3/30
f 43/4/31 42/1/31 51/3/31
f 42/4/32 41/1/32 50/3/32
f 41/4/33 40/1/33 49/3/33
f 48/3/34 40/4/34 47/2/34
f 39/4/35 38/1/35 47/3/35
f 38/4/36 37/1/36 46/3/36
f 51/4/37 50/1/37 58/3/37
f 50/4/38 49/1/38 57/3/38
f 49/4/39 48/1/39 56/3/39
f 48/4/40 47/1/40 55/3/40
f 47/4/41 46/1/41 54/3/41
f 46/4/42 45/1/42 53/3/42
f 58/4/43 57/1/43 65/3/43
f 57/4/44 56/1/44 64/3/44
f 56/4/45 55/1/45 63/3/45
f 55/4/46 54/1/46 62/3/46
f 54/4/47 53/1/47 61/3/47
f 60/3/48 53/4/48 59/2/48
f 65/4/49 64/1/49 72/3/49
f 64/4/50 63/1/50 71/3/50
f 63/4/51 62/1/51 70/3/51
f 69/3/52 62/4/52 68/2/52
f 61/4/53 60/1/53 68/3/53
f 60/4/54 59/1/54 67/3/54
f 72/4/55 71/1/55 79/3/55
f 71/4/56 70/1/56 78/3/56
f 70/4/57 69/1/57 77/3/57
f 69/4/58 68/1/58 76/3/58
f 75/3/59 68/4/59 74/2/59
f 67/4/60 66/1/60 74/3/60
f 79/4/61 78/1/61 86/3/61
f 78/4/62 77/1/62 85/3/62
f 77/4/63 76/1/63 84/3/63
f 76/4/64 75/1/64 83/3/64
f 82/3/65 75/4/65 81/2/65
f 74/4/66 73/1/66 81/3/66
f 86/4/67 85/1/67 93/3/67
f 92/3/68 85/4/68 91/2/68
f 91/3/69 84/4/69 90/2/69
f 83/4/70 82/1/70 90/3/70
f 82/4/71 81/1/71 89/3/71
f 81/4/72 80/1/72 88/3/72
f 100/3/73 93/4/73 99/2/73
f 92/4/74 91/1/74 99/3/74
f 98/3/75 91/4/75 97/2/75
f 90/4/76 89/1/76 97/3/76
f 89/4/77 88/1/77 96/3/77
f 88/4/78 87/1/78 95/3/78
f 100/4/79 99/1/79 107/3/79
f 106/3/80 99/4/80 105/2/80
f 105/3/81 98/4/81 104/2/81
f 97/4/82 96/1/82 104/3/82
f 103/3/83 96/4/83 102/2/83
f 95/4/84 94/1/84 102/3/84
f 107/4/85 106/1/85 114/3/85
f 106/4/86 105/1/86 113/3/86
f 112/3/87 105/4/87 111/2/87
f 104/4/88 103/1/88 111/3/88
f 110/3/89 103/4/89 109/2/89
f 102/4/90 101/1/90 109/3/90
f 7/3/122 114/4/122 6/2/122
f 6/3/123 113/4/123 5/2/123
f 112/4/124 111/1/124 5/3/124
f 111/4/125 110/1/125 4/3/125
f 110/4/126 109/1/126 3/3/126
f 109/4/127 108/1/127 2/3/127
